<?xml version="1.0" standalone="no"?>
<!DOCTYPE svg PUBLIC "-//W3C//DTD SVG 20010904//EN"
 "http://www.w3.org/TR/2001/REC-SVG-20010904/DTD/svg10.dtd">
<svg version="1.0" xmlns="http://www.w3.org/2000/svg"
 width="511.000000pt" height="511.000000pt" viewBox="0 0 511.000000 511.000000"
 preserveAspectRatio="xMidYMid meet">
<metadata>
Created by potrace 1.14, written by Peter Selinger 2001-2017
</metadata>
<g transform="translate(0.000000,511.000000) scale(0.100000,-0.100000)"
fill="#000000" stroke="none">
<path d="M258 5087 c-118 -46 -199 -128 -238 -241 -20 -59 -20 -75 -20 -2291
0 -2216 0 -2232 20 -2291 40 -115 129 -204 244 -244 59 -20 75 -20 2291 -20
2216 0 2232 0 2291 20 115 40 204 129 244 244 20 59 20 75 20 2291 0 2216 0
2232 -20 2291 -39 113 -120 195 -238 241 l-57 22 -2240 0 -2240 0 -57 -22z
m1132 -526 c0 -187 2 -209 20 -238 24 -41 80 -57 172 -50 119 8 128 28 128
290 0 176 2 195 19 211 16 15 51 17 321 17 270 0 305 -2 321 -17 18 -16 19
-43 19 -570 0 -480 2 -559 16 -593 19 -48 56 -66 139 -66 69 0 120 18 138 49
9 15 13 170 17 588 5 556 5 568 26 588 19 20 31 21 329 21 284 0 310 -2 327
-18 16 -16 19 -45 25 -246 6 -216 7 -229 27 -239 31 -16 145 -22 193 -9 74 20
73 17 73 255 0 193 2 216 19 237 l18 24 421 -5 420 -5 38 -31 c21 -16 52 -47
68 -68 l31 -38 3 -370 c2 -336 1 -372 -14 -389 -15 -17 -33 -19 -148 -19 -220
0 -241 -16 -234 -182 5 -131 6 -132 206 -136 125 -3 161 -7 175 -19 16 -15 17
-47 17 -401 0 -345 -2 -387 -17 -404 -15 -17 -46 -18 -552 -18 -425 0 -548 -3
-596 -14 -68 -16 -93 -40 -120 -110 l-18 -46 29 -57 c52 -104 10 -98 670 -101
559 -3 572 -3 590 -23 17 -19 18 -44 16 -392 -3 -345 -4 -373 -21 -391 -17
-16 -34 -18 -145 -17 -213 3 -223 -3 -232 -140 -10 -155 21 -177 245 -178 101
-1 128 -4 143 -18 17 -15 18 -39 18 -354 0 -207 -4 -358 -11 -389 -9 -42 -21
-61 -65 -104 -33 -32 -70 -58 -94 -65 -28 -8 -154 -12 -427 -11 -382 0 -387 1
-410 22 -23 21 -23 26 -23 229 0 114 -4 219 -10 233 -12 34 -74 50 -168 44
-119 -8 -116 -3 -120 -272 -3 -201 -5 -226 -21 -240 -16 -15 -55 -17 -331 -17
-279 0 -315 2 -331 17 -18 16 -19 44 -19 582 0 493 -2 568 -16 597 -41 86
-212 88 -264 3 -19 -32 -20 -49 -20 -589 l0 -555 -28 -27 -28 -27 -300 0 -301
0 -24 26 c-24 25 -24 29 -27 232 -1 114 -4 217 -7 229 -9 40 -144 57 -225 30
-62 -21 -70 -52 -70 -278 0 -190 -1 -196 -22 -216 -22 -19 -38 -20 -410 -22
-424 -2 -420 -3 -496 59 -21 17 -49 50 -62 73 l-24 42 1 363 c0 344 1 365 20
383 16 17 37 19 168 22 83 2 157 7 166 11 29 13 39 55 39 160 0 144 5 140
-205 144 -149 3 -165 5 -182 24 -17 19 -18 48 -21 390 -3 338 -2 372 14 389
16 18 40 19 558 19 613 1 651 4 698 61 42 50 47 110 15 174 -44 89 -11 85
-658 85 l-562 0 -34 26 -33 25 0 378 c0 371 0 378 21 397 18 17 42 20 184 24
212 6 205 1 205 155 0 163 5 159 -198 163 -139 3 -163 6 -177 22 -14 15 -15
59 -13 392 l3 375 28 36 c15 20 44 49 64 64 l36 28 421 5 c352 4 424 3 439 -9
15 -13 17 -36 17 -220z"/>
<path d="M1280 3755 c0 -3 187 -274 417 -602 229 -329 416 -603 417 -610 1 -7
-198 -296 -441 -642 -244 -346 -443 -632 -443 -635 0 -3 168 -6 373 -6 l373 0
285 425 c156 233 286 424 289 424 3 1 131 -190 285 -424 l280 -425 383 0 c210
0 382 3 382 6 0 3 -200 291 -445 640 -245 348 -445 636 -445 639 0 3 189 275
420 605 231 331 420 603 420 605 0 3 -169 5 -375 5 l-376 0 -257 -390 c-141
-214 -259 -390 -262 -390 -3 0 -120 176 -260 390 l-254 390 -383 0 c-211 0
-383 -2 -383 -5z"/>
</g>
</svg>
